<svg xmlns="http://www.w3.org/2000/svg" viewBox="0 0 97 121.44999999999999" x="0px" y="0px"><title>world</title><g data-name="Layer 2"><g><path d="M97,48.5A48.32,48.32,0,0,0,83.43,14.91a1.4,1.4,0,0,0-.09-.13s-.07,0-.1-.07a48.4,48.4,0,0,0-69-.53l-.1.07a1.44,1.44,0,0,0-.09.14,48.41,48.41,0,0,0,1.72,69.89s0,0,0,.06a1.5,1.5,0,0,0,.3.24A48.29,48.29,0,0,0,47.28,97a1.45,1.45,0,0,0,1.4,0A48.31,48.31,0,0,0,81.52,84a1.43,1.43,0,0,0,.17-.12s0-.06.05-.08A48.36,48.36,0,0,0,97,48.5ZM80.51,80.8a48.42,48.42,0,0,0-11.35-7.25,89,89,0,0,0,3.33-23.39H94A45.36,45.36,0,0,1,80.51,80.8ZM3,47.16A45.32,45.32,0,0,1,15.26,17.48,48.48,48.48,0,0,0,27.16,26a91.41,91.41,0,0,0-2.64,21.18ZM30,27.32A48.23,48.23,0,0,0,46.5,31.1V47.16h-19A87.61,87.61,0,0,1,30,27.32ZM82.22,18A45.31,45.31,0,0,1,94,47.16H72.48A91.8,91.8,0,0,0,70,26.43,48.45,48.45,0,0,0,82.22,18ZM49.5,72.17a45.48,45.48,0,0,1,15.87,3C61.7,86,55.92,93.25,49.5,93.94Zm0-3v-19h20a85.57,85.57,0,0,1-3.21,22.18A48.47,48.47,0,0,0,49.5,69.17Zm20-22h-20v-16a48.41,48.41,0,0,0,17.58-3.47A87.84,87.84,0,0,1,69.48,47.16Zm-20-19V3.06c7,.75,13.23,9.35,16.81,21.71A45.4,45.4,0,0,1,49.5,28.15Zm-3-24.93V28.09a45.21,45.21,0,0,1-15.69-3.7C34.23,12.82,40,4.63,46.5,3.22Zm0,46.94V69.23a48.38,48.38,0,0,0-15.67,3.46,85.29,85.29,0,0,1-3.31-22.53Zm0,22.07V93.78c-6-1.28-11.27-8.22-14.75-18.22A45.37,45.37,0,0,1,46.5,72.24ZM38.72,92.93a45.37,45.37,0,0,1-19.51-9.65,45.47,45.47,0,0,1,9.7-6.44C31.37,83.86,34.75,89.44,38.72,92.93Zm29.51-16.5a45.41,45.41,0,0,1,10.05,6.42,45.38,45.38,0,0,1-20,10.08C62.33,89.37,65.76,83.65,68.23,76.43Zm11.89-60.6a45.47,45.47,0,0,1-11,7.63c-2.51-8.58-6.3-15.37-10.88-19.4A45.44,45.44,0,0,1,80.13,15.83ZM28,23a45.51,45.51,0,0,1-10.6-7.67A45.42,45.42,0,0,1,38.72,4.07C34.22,8,30.48,14.65,28,23ZM3,50.16H24.52A88.64,88.64,0,0,0,28,74a48.44,48.44,0,0,0-11,7.3A45.36,45.36,0,0,1,3,50.16Z"/></g></g></svg>